# xmcd
# 
# Track frame offsets:
#     150
#     16837
#     30375
#     49327
#     67915
#     81860
#     100077
#     116947
#     134052
#     149167
#     165052
#     178570
#     195302
#     207002
#     220497
#     233455
# 
# Disc length: 3306
# 
# Revision: 0
# Processed by: cddbd v1.5.2PL0 Copyright (c) Steve Scherf et al.
# Submitted via: fre:ac v1.0.27
# 
DISCID=d80ce810
DTITLE=西卿 - 西卿專輯 1
DYEAR=1988
DGENRE=布袋戲配樂
TTITLE0=鹹酸甜的探戈
TTITLE1=預防萬一
TTITLE2=軟弱的影
TTITLE3=情投意合
TTITLE4=愛的腳步聲
TTITLE5=為情流浪
TTITLE6=青春愛保重
TTITLE7=永遠懷念你
TTITLE8=海邊思情
TTITLE9=夢中彼個人
TTITLE10=預防萬一 (卡拉OK)
TTITLE11=鹹酸甜的探戈 (輕音樂)
TTITLE12=梅君子 (輕音樂)
TTITLE13=冷霜子 (輕音樂)
TTITLE14=天劍女王 (輕音樂)
TTITLE15=廣東花 (輕音樂)
EXTD=
EXTT0=
EXTT1=
EXTT2=
EXTT3=
EXTT4=
EXTT5=
EXTT6=
EXTT7=
EXTT8=
EXTT9=
EXTT10=
EXTT11=
EXTT12=
EXTT13=
EXTT14=
EXTT15=
PLAYORDER=
